<?xml version="1.0" standalone="no"?>
<!DOCTYPE svg PUBLIC "-//W3C//DTD SVG 20010904//EN"
 "http://www.w3.org/TR/2001/REC-SVG-20010904/DTD/svg10.dtd">
<svg version="1.0" xmlns="http://www.w3.org/2000/svg"
 width="640.000000pt" height="480.000000pt" viewBox="0 0 640.000000 480.000000"
 preserveAspectRatio="xMidYMid meet">

<g transform="translate(0.000000,480.000000) scale(0.100000,-0.100000)"
fill="#000000" stroke="none">
<path d="M3335 4600 c-374 -125 -621 -190 -932 -244 -180 -32 -300 -44 -538
-56 -216 -10 -342 -36 -445 -91 -87 -46 -130 -108 -217 -309 -42 -98 -173
-440 -173 -452 0 -4 30 12 68 36 168 109 291 151 432 150 108 -2 265 -31 372
-71 39 -15 118 -57 175 -95 140 -92 174 -102 326 -95 191 9 495 71 646 132 35
14 95 48 135 74 170 114 359 154 576 123 152 -22 330 -12 448 25 78 24 166
112 181 181 14 65 6 104 -28 135 -33 31 -161 73 -266 88 -101 14 -436 6 -635
-16 -152 -17 -287 -14 -410 8 -60 12 -51 12 130 12 124 0 286 8 445 23 216 20
265 21 368 12 198 -18 356 -70 400 -131 41 -58 23 -198 -30 -224 -12 -6 -40
-30 -63 -53 -23 -23 -48 -42 -56 -42 -30 0 -23 -22 13 -36 21 -9 99 -65 173
-124 74 -59 160 -124 190 -146 30 -21 87 -67 125 -103 97 -89 177 -146 232
-167 27 -9 59 -28 73 -40 34 -31 108 -64 146 -64 17 0 46 5 65 11 36 12 118
86 119 106 0 6 -50 56 -112 110 -178 156 -233 209 -361 352 -65 74 -143 155
-172 180 -30 25 -88 88 -130 138 -54 66 -94 103 -135 127 -31 19 -143 94 -248
167 -105 74 -223 155 -264 181 -40 26 -115 86 -167 134 -99 91 -154 124 -211
124 -19 0 -129 -32 -245 -70z"/>
<path d="M3266 3454 c-38 -110 -145 -322 -281 -554 -196 -334 -281 -517 -321
-686 -19 -83 -14 -276 10 -364 59 -214 218 -365 452 -432 222 -63 474 3 640
167 112 110 168 244 181 430 6 89 -11 235 -27 235 -4 0 -25 -14 -46 -31 -46
-37 -209 -134 -242 -144 -16 -5 -41 4 -90 31 -167 92 -305 211 -352 303 -29
59 -31 141 -3 196 56 108 158 141 346 110 85 -14 112 -15 141 -5 20 6 36 13
36 16 0 2 -52 94 -115 203 -137 239 -222 407 -260 516 -16 44 -31 83 -34 87
-4 4 -19 -31 -35 -78z"/>
<path d="M3346 2678 c-55 -15 -112 -75 -124 -132 -18 -85 14 -164 101 -249 46
-45 191 -143 255 -171 l43 -19 47 22 c83 40 206 128 260 185 64 67 91 125 92
190 0 145 -146 219 -342 172 -49 -11 -67 -11 -115 0 -67 16 -161 16 -217 2z
m304 -153 l0 -55 45 0 45 0 0 -40 0 -40 -45 0 -45 0 0 -55 c0 -54 0 -55 -30
-55 -30 0 -30 1 -30 55 l0 55 -45 0 -45 0 0 40 0 40 45 0 45 0 0 55 c0 54 0
55 30 55 30 0 30 -1 30 -55z"/>
<path d="M1124 1746 c-32 -14 -104 -82 -104 -98 0 -13 48 -59 181 -176 64 -55
163 -152 220 -214 57 -62 149 -158 205 -213 56 -55 132 -136 169 -180 37 -44
75 -85 84 -92 21 -16 256 -175 467 -317 95 -64 214 -154 265 -201 51 -46 107
-91 125 -100 61 -29 131 -19 306 40 580 198 1100 305 1478 305 224 0 449 62
533 146 35 35 86 125 138 246 38 86 179 451 179 462 0 3 -40 -19 -88 -49 -97
-58 -175 -94 -267 -120 -48 -14 -83 -17 -180 -12 -209 10 -372 64 -542 180
-87 59 -124 74 -213 83 -100 11 -455 -49 -640 -108 -110 -35 -143 -51 -244
-117 -44 -28 -113 -61 -172 -81 -89 -30 -110 -33 -214 -33 -63 -1 -185 3 -271
8 -240 12 -372 -14 -445 -88 -17 -18 -39 -38 -47 -45 -9 -7 -24 -38 -33 -69
-20 -67 -8 -120 32 -152 41 -33 185 -71 311 -83 90 -9 166 -9 332 1 119 7 239
17 266 21 80 14 246 11 357 -5 56 -9 104 -18 107 -20 6 -7 -20 -6 -148 5 -75
7 -141 7 -195 0 -150 -18 -460 -40 -566 -40 -178 0 -386 42 -465 94 -59 39
-77 110 -51 200 14 48 22 59 47 68 16 5 34 19 40 30 6 11 30 32 54 47 33 21
41 31 33 39 -7 7 -19 12 -27 12 -16 0 -81 47 -210 153 -46 37 -109 85 -140
106 -31 21 -101 79 -156 128 -122 108 -149 127 -206 149 -24 9 -61 30 -82 46
-73 57 -155 73 -223 44z"/>
</g>
</svg>
